<?xml version="1.0" standalone="no"?>
<!DOCTYPE svg PUBLIC "-//W3C//DTD SVG 20010904//EN"
 "http://www.w3.org/TR/2001/REC-SVG-20010904/DTD/svg10.dtd">
<svg version="1.0" xmlns="http://www.w3.org/2000/svg"
 width="512.000000pt" height="512.000000pt" viewBox="0 0 512.000000 512.000000"
 preserveAspectRatio="xMidYMid meet">

<g transform="translate(0.000000,512.000000) scale(0.100000,-0.100000)"
fill="#000000" stroke="none">
<path d="M3480 4874 c-119 -32 -208 -107 -264 -224 -30 -62 -31 -71 -34 -212
l-4 -148 -642 0 -643 0 -21 -23 c-31 -33 -29 -80 4 -106 26 -21 34 -21 665
-21 l639 0 0 -125 0 -125 -993 0 c-1084 0 -1050 2 -1161 -58 -61 -33 -157
-126 -175 -170 l-13 -32 -145 0 -146 0 7 43 c3 23 25 80 48 127 55 114 160
221 268 274 119 58 176 66 495 66 204 1 284 4 296 13 44 34 46 95 3 123 -19
13 -70 15 -346 12 -360 -4 -383 -8 -529 -85 -192 -100 -343 -299 -387 -510
l-16 -82 -57 -21 c-111 -40 -220 -141 -278 -257 -48 -95 -51 -135 -51 -670 0
-529 2 -562 47 -663 50 -115 162 -223 278 -268 l50 -20 3 -375 2 -374 -48 -5
c-111 -11 -229 -97 -280 -206 -24 -50 -27 -70 -27 -157 0 -88 3 -107 27 -157
33 -71 100 -138 176 -175 l57 -28 1884 -3 1884 -2 24 22 c31 29 30 72 -2 103
l-24 25 -1848 0 c-1168 0 -1861 4 -1883 10 -49 13 -109 66 -131 114 -24 52
-24 130 0 181 22 50 79 101 128 115 26 7 242 10 692 8 l653 -3 20 -53 c28 -75
111 -161 190 -198 l63 -29 614 -3 c677 -3 670 -3 765 59 60 40 120 115 143
180 l18 49 676 -2 675 -3 42 -27 c138 -92 129 -294 -17 -370 l-53 -28 -250 0
-249 0 -24 -25 c-32 -31 -32 -69 0 -101 l25 -25 273 3 273 3 65 32 c79 39 140
102 177 181 23 48 27 71 27 147 0 77 -4 99 -27 147 -55 118 -168 203 -284 215
l-54 6 0 1172 0 1173 48 12 c71 18 137 57 193 117 63 66 96 139 109 234 12 95
12 762 0 857 -22 171 -138 304 -304 348 -78 21 -1237 19 -1316 -2z m-298
-1205 c13 -132 107 -263 233 -325 l60 -29 360 -5 360 -5 0 -210 0 -210 -490
-5 -490 -5 -57 -28 c-74 -36 -150 -119 -178 -193 -20 -55 -21 -70 -18 -488 l3
-431 34 -63 c41 -75 94 -125 170 -161 l56 -26 449 -3 449 -3 -24 -25 c-13 -15
-46 -38 -74 -52 l-50 -27 -1392 -3 c-1387 -2 -1392 -2 -1447 18 -103 39 -180
138 -193 250 l-6 49 664 3 664 3 67 26 c37 14 90 41 118 59 100 64 193 195
219 310 7 28 11 246 11 570 0 573 -1 588 -58 694 -39 74 -145 177 -221 215
-116 59 -136 61 -790 61 l-594 0 18 20 c28 31 84 63 135 76 34 10 276 12 1025
11 l980 -2 7 -66z m1418 -1529 l0 -1170 -2030 0 -2030 0 0 360 0 360 125 0
125 0 0 -44 c0 -150 112 -312 269 -389 l66 -32 1440 0 1440 0 75 36 c87 41
163 110 207 187 20 36 47 63 90 91 71 48 124 121 147 200 23 79 24 812 1 888
-21 69 -70 141 -127 183 l-48 35 0 232 0 233 125 0 125 0 0 -1170z m-342 574
c20 -8 52 -29 70 -47 58 -56 62 -89 62 -486 0 -208 -4 -371 -10 -392 -16 -56
-51 -101 -100 -129 l-45 -25 -455 -3 c-504 -4 -538 -1 -597 51 -72 63 -73 66
-73 492 0 237 4 394 11 418 13 47 77 113 121 126 19 5 241 10 506 10 406 1
478 -1 510 -15z m-948 -1914 c0 -6 -21 -32 -48 -59 -34 -34 -61 -51 -94 -59
-71 -18 -1160 -16 -1211 2 -49 18 -98 56 -120 95 l-18 31 745 0 c513 0 746 -3
746 -10z"/>
<path d="M4042 2552 c-10 -10 -87 -145 -172 -300 -85 -156 -157 -281 -160
-280 -4 2 -48 51 -99 109 -50 59 -98 110 -107 113 -30 12 -55 6 -79 -19 -48
-47 -38 -69 111 -242 149 -173 179 -196 222 -172 38 21 405 689 406 738 0 61
-80 95 -122 53z"/>
</g>
</svg>
